<svg id="Layer_1" data-name="Layer 1" xmlns="http://www.w3.org/2000/svg" viewBox="0 0 170 33"><defs><style>.cls-1,.cls-3{stroke:#000;stroke-miterlimit:3.86;}.cls-1{stroke-width:4.25px;}.cls-1,.cls-2,.cls-3{fill-rule:evenodd;}.cls-2{fill:#fff;}.cls-3{stroke-width:6.14px;}</style></defs><title>Artboard 1jj</title><path class="cls-1" d="M45.56,15.78v9.1h4.59v-9.1a2.37,2.37,0,0,1,.25-1.25,1.17,1.17,0,0,1,1.73,0,2.35,2.35,0,0,1,.26,1.25v9.1H57V14.48a5.21,5.21,0,0,0-.28-1.83,3,3,0,0,0-.77-1.15,2.59,2.59,0,0,0-1.14-.59,5.68,5.68,0,0,0-1.41-.17,4.38,4.38,0,0,0-2,.48,3.22,3.22,0,0,0-1.45,1.63,3.35,3.35,0,0,0-1.2-1.58,3.66,3.66,0,0,0-2.17-.53,3.32,3.32,0,0,0-3.34,2h-.05V11.09H38.73V24.88h4.58v-9.1a2.35,2.35,0,0,1,.26-1.25,1.17,1.17,0,0,1,1.73,0A2.35,2.35,0,0,1,45.56,15.78Z"/><path class="cls-1" d="M62.87,18c0-.87,0-1.58.05-2.14a5.76,5.76,0,0,1,.2-1.33,1.35,1.35,0,0,1,.38-.66,1.1,1.1,0,0,1,.64-.18,1.08,1.08,0,0,1,.64.18,1.1,1.1,0,0,1,.38.66,5.76,5.76,0,0,1,.2,1.33c0,.56,0,1.27,0,2.14s0,1.58,0,2.14a5.47,5.47,0,0,1-.2,1.3,1.13,1.13,0,0,1-.38.67,1.15,1.15,0,0,1-.64.17,1.17,1.17,0,0,1-.64-.17,1.39,1.39,0,0,1-.38-.67,5.47,5.47,0,0,1-.2-1.3C62.88,19.58,62.87,18.87,62.87,18ZM70,18a22.17,22.17,0,0,0-.17-2.8,5.92,5.92,0,0,0-.74-2.32,4,4,0,0,0-1.76-1.56,7.24,7.24,0,0,0-3.19-.58,6.58,6.58,0,0,0-3.11.63A4.48,4.48,0,0,0,59.27,13a6.28,6.28,0,0,0-.81,2.32A19.34,19.34,0,0,0,58.28,18a25.39,25.39,0,0,0,.15,2.84,6,6,0,0,0,.77,2.29A4,4,0,0,0,61,24.63a7.82,7.82,0,0,0,3.19.53,6.82,6.82,0,0,0,3.08-.58A4.47,4.47,0,0,0,69,23a6,6,0,0,0,.79-2.32A16.53,16.53,0,0,0,70,18Z"/><path class="cls-1" d="M70.56,11.09v3.09h1.53v7.34a6.81,6.81,0,0,0,.21,1.86,2,2,0,0,0,.69,1,2.52,2.52,0,0,0,1.22.46c.49.05,1.09.08,1.78.08.39,0,.8,0,1.23-.05s.85,0,1.27,0V21.82h-.71a1.3,1.3,0,0,1-.84-.22,1.18,1.18,0,0,1-.26-.85V14.18h1.81V11.09H76.68V7H72.09v4.05Z"/><path class="cls-1" d="M83.64,18c0-.87,0-1.58,0-2.14a5.69,5.69,0,0,1,.21-1.33,1.35,1.35,0,0,1,.38-.66,1.08,1.08,0,0,1,.64-.18,1.07,1.07,0,0,1,.63.18,1.16,1.16,0,0,1,.39.66,5.76,5.76,0,0,1,.2,1.33c0,.56,0,1.27,0,2.14s0,1.58,0,2.14a5.47,5.47,0,0,1-.2,1.3,1.19,1.19,0,0,1-.39.67,1.27,1.27,0,0,1-1.27,0,1.39,1.39,0,0,1-.38-.67,5.4,5.4,0,0,1-.21-1.3C83.66,19.58,83.64,18.87,83.64,18Zm7.14,0a20.38,20.38,0,0,0-.18-2.8,5.77,5.77,0,0,0-.74-2.32,4,4,0,0,0-1.76-1.56,7.2,7.2,0,0,0-3.18-.58,6.55,6.55,0,0,0-3.11.63A4.35,4.35,0,0,0,80.05,13a6.47,6.47,0,0,0-.82,2.32A19.34,19.34,0,0,0,79.05,18a23.14,23.14,0,0,0,.16,2.84A6,6,0,0,0,80,23.1a4,4,0,0,0,1.76,1.53,7.75,7.75,0,0,0,3.19.53A6.82,6.82,0,0,0,88,24.58,4.54,4.54,0,0,0,89.79,23a6,6,0,0,0,.78-2.32A16.53,16.53,0,0,0,90.78,18Z"/><path class="cls-1" d="M92.08,11.09V24.88h4.59V17.36a2.36,2.36,0,0,1,.66-1.91,3.1,3.1,0,0,1,1.91-.53,5.15,5.15,0,0,1,.56,0c.19,0,.39,0,.59.08V10.74h-.74a2.94,2.94,0,0,0-1.86.66,3.6,3.6,0,0,0-1.23,1.89h0v-2.2Z"/><path class="cls-1" d="M104.72,20.6h-4A4.44,4.44,0,0,0,101.94,24a6.18,6.18,0,0,0,4.16,1.14,8.26,8.26,0,0,0,2.32-.3,4.47,4.47,0,0,0,1.73-.92,4.2,4.2,0,0,0,1.1-1.45,4.51,4.51,0,0,0,.38-1.86,3.87,3.87,0,0,0-.51-2.12,3.63,3.63,0,0,0-1.22-1.27,5.89,5.89,0,0,0-1.61-.74L106.71,16a6.47,6.47,0,0,1-1.25-.51,1.09,1.09,0,0,1-.15-1.68,1.24,1.24,0,0,1,.84-.28,1.15,1.15,0,0,1,.89.33,1.64,1.64,0,0,1,.33,1.2h4c0-2.89-1.73-4.33-5.17-4.33a8.12,8.12,0,0,0-2.45.33A5,5,0,0,0,102,12a3.82,3.82,0,0,0-1,1.38,4.2,4.2,0,0,0-.34,1.68,4.13,4.13,0,0,0,.49,2.12,4.21,4.21,0,0,0,1.25,1.27,6.61,6.61,0,0,0,1.58.77l1.6.53a5.23,5.23,0,0,1,1.23.59,1.06,1.06,0,0,1,.51.94,1,1,0,0,1-.41.87,1.44,1.44,0,0,1-.92.31,1.09,1.09,0,0,1-1-.49,1.4,1.4,0,0,1-.25-.58A3.79,3.79,0,0,1,104.72,20.6Z"/><path class="cls-1" d="M117.65,18c0-.74,0-1.35,0-1.83a5.15,5.15,0,0,1,.18-1.17,1.2,1.2,0,0,1,.4-.64,1.1,1.1,0,0,1,.64-.18,1.12,1.12,0,0,1,.66.18A1.14,1.14,0,0,1,120,15a4.53,4.53,0,0,1,.2,1.17c0,.48,0,1.09,0,1.83s0,1.37,0,1.87A5,5,0,0,1,120,21a1.16,1.16,0,0,1-.39.61,1.2,1.2,0,0,1-.66.17,1.17,1.17,0,0,1-.64-.17,1.23,1.23,0,0,1-.4-.61,5.66,5.66,0,0,1-.18-1.2C117.66,19.34,117.65,18.72,117.65,18Zm-4.59-6.88v18.2h4.59v-6h0a2.34,2.34,0,0,0,1.12,1.45,3.92,3.92,0,0,0,1.76.38,4.72,4.72,0,0,0,1.73-.3,3,3,0,0,0,1.33-1.12,6.33,6.33,0,0,0,.86-2.14,14.74,14.74,0,0,0,.31-3.32,13.43,13.43,0,0,0-.92-5.68,3.28,3.28,0,0,0-3.21-1.86A3.07,3.07,0,0,0,117.54,13h-.05V11.09Z"/><path class="cls-1" d="M130.42,18c0-.87,0-1.58.05-2.14a5.76,5.76,0,0,1,.2-1.33,1.35,1.35,0,0,1,.38-.66,1.1,1.1,0,0,1,.64-.18,1.08,1.08,0,0,1,.64.18,1.1,1.1,0,0,1,.38.66,6.28,6.28,0,0,1,.21,1.33c0,.56.05,1.27.05,2.14s0,1.58-.05,2.14a6,6,0,0,1-.21,1.3,1.13,1.13,0,0,1-.38.67,1.15,1.15,0,0,1-.64.17,1.17,1.17,0,0,1-.64-.17,1.39,1.39,0,0,1-.38-.67,5.47,5.47,0,0,1-.2-1.3C130.43,19.58,130.42,18.87,130.42,18Zm7.13,0a20.45,20.45,0,0,0-.17-2.8,5.92,5.92,0,0,0-.74-2.32,4,4,0,0,0-1.76-1.56,7.22,7.22,0,0,0-3.19-.58,6.58,6.58,0,0,0-3.11.63A4.48,4.48,0,0,0,126.82,13a6.46,6.46,0,0,0-.81,2.32,19.34,19.34,0,0,0-.18,2.65,25.39,25.39,0,0,0,.15,2.84,6.14,6.14,0,0,0,.77,2.29,4,4,0,0,0,1.76,1.53,7.73,7.73,0,0,0,3.18.53,6.89,6.89,0,0,0,3.09-.58A4.5,4.5,0,0,0,136.56,23a6,6,0,0,0,.79-2.32A16.53,16.53,0,0,0,137.55,18Z"/><path class="cls-1" d="M138.86,11.09V24.88h4.58V17.36a2.36,2.36,0,0,1,.67-1.91,3.06,3.06,0,0,1,1.91-.53,5.24,5.24,0,0,1,.56,0c.19,0,.38,0,.59.08V10.74h-.74a3,3,0,0,0-1.87.66,3.59,3.59,0,0,0-1.22,1.89h-.05v-2.2Z"/><path class="cls-1" d="M147.09,11.09v3.09h1.53v7.34a7.28,7.28,0,0,0,.2,1.86,2,2,0,0,0,.69,1,2.52,2.52,0,0,0,1.22.46c.5.05,1.09.08,1.79.08.39,0,.8,0,1.22-.05s.85,0,1.28,0V21.82h-.72a1.34,1.34,0,0,1-.84-.22,1.18,1.18,0,0,1-.25-.85V14.18H155V11.09h-1.81V7h-4.59v4.05Z"/><path class="cls-1" d="M159.53,20.6h-4A4.44,4.44,0,0,0,156.75,24a6.15,6.15,0,0,0,4.15,1.14,8.21,8.21,0,0,0,2.32-.3,4.51,4.51,0,0,0,1.74-.92,4.17,4.17,0,0,0,1.09-1.45,4.36,4.36,0,0,0,.39-1.86,3.87,3.87,0,0,0-.51-2.12,3.66,3.66,0,0,0-1.23-1.27,5.83,5.83,0,0,0-1.6-.74L161.52,16a6.22,6.22,0,0,1-1.25-.51,1.08,1.08,0,0,1-.16-1.68,1.26,1.26,0,0,1,.85-.28,1.16,1.16,0,0,1,.89.33,1.64,1.64,0,0,1,.33,1.2h4q0-4.34-5.18-4.33a8.21,8.21,0,0,0-2.45.33,4.92,4.92,0,0,0-1.7.91,3.74,3.74,0,0,0-1,1.38A4.2,4.2,0,0,0,155.5,15a4,4,0,0,0,.49,2.12,4.07,4.07,0,0,0,1.24,1.27,6.8,6.8,0,0,0,1.58.77l1.61.53a5.14,5.14,0,0,1,1.22.59,1.06,1.06,0,0,1,.51.94,1,1,0,0,1-.4.87,1.46,1.46,0,0,1-.92.31,1.08,1.08,0,0,1-1-.49,1.55,1.55,0,0,1-.26-.58A3.8,3.8,0,0,1,159.53,20.6Z"/><path class="cls-2" d="M45.56,15.78v9.1h4.59v-9.1a2.37,2.37,0,0,1,.25-1.25,1.17,1.17,0,0,1,1.73,0,2.35,2.35,0,0,1,.26,1.25v9.1H57V14.48a5.21,5.21,0,0,0-.28-1.83,3,3,0,0,0-.77-1.15,2.59,2.59,0,0,0-1.14-.59,5.68,5.68,0,0,0-1.41-.17,4.38,4.38,0,0,0-2,.48,3.22,3.22,0,0,0-1.45,1.63,3.35,3.35,0,0,0-1.2-1.58,3.66,3.66,0,0,0-2.17-.53,3.32,3.32,0,0,0-3.34,2h-.05V11.09H38.73V24.88h4.58v-9.1a2.35,2.35,0,0,1,.26-1.25,1.17,1.17,0,0,1,1.73,0A2.35,2.35,0,0,1,45.56,15.78Z"/><path class="cls-2" d="M62.87,18c0-.87,0-1.58.05-2.14a5.76,5.76,0,0,1,.2-1.33,1.35,1.35,0,0,1,.38-.66,1.1,1.1,0,0,1,.64-.18,1.08,1.08,0,0,1,.64.18,1.16,1.16,0,0,1,.38.66,5.76,5.76,0,0,1,.2,1.33c0,.56,0,1.27,0,2.14s0,1.58,0,2.14a5.47,5.47,0,0,1-.2,1.3,1.19,1.19,0,0,1-.38.67,1.15,1.15,0,0,1-.64.17,1.17,1.17,0,0,1-.64-.17,1.39,1.39,0,0,1-.38-.67,5.47,5.47,0,0,1-.2-1.3C62.88,19.58,62.87,18.87,62.87,18ZM70,18a22.17,22.17,0,0,0-.17-2.8,5.92,5.92,0,0,0-.74-2.32,4,4,0,0,0-1.76-1.56,7.24,7.24,0,0,0-3.19-.58,6.58,6.58,0,0,0-3.11.63A4.48,4.48,0,0,0,59.27,13a6.28,6.28,0,0,0-.81,2.32A19.34,19.34,0,0,0,58.28,18a25.39,25.39,0,0,0,.15,2.84,6,6,0,0,0,.77,2.29A4,4,0,0,0,61,24.63a7.82,7.82,0,0,0,3.19.53,6.82,6.82,0,0,0,3.08-.58A4.47,4.47,0,0,0,69,23a6,6,0,0,0,.79-2.32A16.53,16.53,0,0,0,70,18Z"/><path class="cls-2" d="M70.56,11.09v3.09h1.53v7.34a6.81,6.81,0,0,0,.21,1.86,2,2,0,0,0,.69,1,2.52,2.52,0,0,0,1.22.46c.49.05,1.09.08,1.78.08.39,0,.8,0,1.23-.05s.85,0,1.27,0V21.82h-.71a1.3,1.3,0,0,1-.84-.22,1.18,1.18,0,0,1-.26-.85V14.18h1.81V11.09H76.68V7H72.09v4.05Z"/><path class="cls-2" d="M83.64,18c0-.87,0-1.58,0-2.14a5.69,5.69,0,0,1,.21-1.33,1.35,1.35,0,0,1,.38-.66,1.08,1.08,0,0,1,.64-.18,1.07,1.07,0,0,1,.63.18,1.16,1.16,0,0,1,.39.66,5.76,5.76,0,0,1,.2,1.33c0,.56,0,1.27,0,2.14s0,1.58,0,2.14a5.47,5.47,0,0,1-.2,1.3,1.19,1.19,0,0,1-.39.67,1.27,1.27,0,0,1-1.27,0,1.39,1.39,0,0,1-.38-.67,5.4,5.4,0,0,1-.21-1.3C83.66,19.58,83.64,18.87,83.64,18Zm7.14,0a20.38,20.38,0,0,0-.18-2.8,5.77,5.77,0,0,0-.74-2.32,4,4,0,0,0-1.76-1.56,7.2,7.2,0,0,0-3.18-.58,6.55,6.55,0,0,0-3.11.63A4.35,4.35,0,0,0,80.05,13a6.47,6.47,0,0,0-.82,2.32A19.34,19.34,0,0,0,79.05,18a23.14,23.14,0,0,0,.16,2.84A6,6,0,0,0,80,23.1a4,4,0,0,0,1.76,1.53,7.75,7.75,0,0,0,3.19.53A6.82,6.82,0,0,0,88,24.58,4.54,4.54,0,0,0,89.79,23a6,6,0,0,0,.78-2.32A16.53,16.53,0,0,0,90.78,18Z"/><path class="cls-2" d="M92.08,11.09V24.88h4.59V17.36a2.36,2.36,0,0,1,.66-1.91,3.1,3.1,0,0,1,1.91-.53,5.15,5.15,0,0,1,.56,0c.19,0,.39,0,.59.08V10.74h-.74a2.94,2.94,0,0,0-1.86.66,3.6,3.6,0,0,0-1.23,1.89h0v-2.2Z"/><path class="cls-2" d="M104.72,20.6h-4A4.44,4.44,0,0,0,101.94,24a6.18,6.18,0,0,0,4.16,1.14,8.26,8.26,0,0,0,2.32-.3,4.47,4.47,0,0,0,1.73-.92,4.2,4.2,0,0,0,1.1-1.45,4.51,4.51,0,0,0,.38-1.86,3.87,3.87,0,0,0-.51-2.12,3.63,3.63,0,0,0-1.22-1.27,5.89,5.89,0,0,0-1.61-.74L106.71,16a6.47,6.47,0,0,1-1.25-.51,1.09,1.09,0,0,1-.15-1.68,1.24,1.24,0,0,1,.84-.28,1.15,1.15,0,0,1,.89.33,1.64,1.64,0,0,1,.33,1.2h4c0-2.89-1.73-4.33-5.17-4.33a8.12,8.12,0,0,0-2.45.33A5,5,0,0,0,102,12a3.82,3.82,0,0,0-1,1.38,4.2,4.2,0,0,0-.34,1.68,4.13,4.13,0,0,0,.49,2.12,4.21,4.21,0,0,0,1.25,1.27,6.61,6.61,0,0,0,1.58.77l1.6.53a5.23,5.23,0,0,1,1.23.59,1.06,1.06,0,0,1,.51.94,1,1,0,0,1-.41.87,1.44,1.44,0,0,1-.92.31,1.09,1.09,0,0,1-1-.49,1.4,1.4,0,0,1-.25-.58A3.79,3.79,0,0,1,104.72,20.6Z"/><path class="cls-2" d="M117.65,18c0-.74,0-1.35,0-1.83a5.15,5.15,0,0,1,.18-1.17,1.2,1.2,0,0,1,.4-.64,1.1,1.1,0,0,1,.64-.18,1.12,1.12,0,0,1,.66.18A1.14,1.14,0,0,1,120,15a4.53,4.53,0,0,1,.2,1.17c0,.48,0,1.09,0,1.83s0,1.37,0,1.87A5,5,0,0,1,120,21a1.16,1.16,0,0,1-.39.61,1.2,1.2,0,0,1-.66.17,1.17,1.17,0,0,1-.64-.17,1.23,1.23,0,0,1-.4-.61,5.66,5.66,0,0,1-.18-1.2C117.66,19.34,117.65,18.72,117.65,18Zm-4.59-6.88v18.2h4.59v-6h0a2.34,2.34,0,0,0,1.12,1.45,3.92,3.92,0,0,0,1.76.38,4.72,4.72,0,0,0,1.73-.3,3,3,0,0,0,1.33-1.12,6.33,6.33,0,0,0,.86-2.14,14.74,14.74,0,0,0,.31-3.32,13.43,13.43,0,0,0-.92-5.68,3.28,3.28,0,0,0-3.21-1.86A3.07,3.07,0,0,0,117.54,13h-.05V11.09Z"/><path class="cls-2" d="M130.42,18c0-.87,0-1.58.05-2.14a5.76,5.76,0,0,1,.2-1.33,1.35,1.35,0,0,1,.38-.66,1.1,1.1,0,0,1,.64-.18,1.08,1.08,0,0,1,.64.18,1.1,1.1,0,0,1,.38.66,6.28,6.28,0,0,1,.21,1.33c0,.56.05,1.27.05,2.14s0,1.58-.05,2.14a6,6,0,0,1-.21,1.3,1.13,1.13,0,0,1-.38.67,1.15,1.15,0,0,1-.64.17,1.17,1.17,0,0,1-.64-.17,1.39,1.39,0,0,1-.38-.67,5.47,5.47,0,0,1-.2-1.3C130.43,19.58,130.42,18.87,130.42,18Zm7.13,0a20.45,20.45,0,0,0-.17-2.8,5.92,5.92,0,0,0-.74-2.32,4,4,0,0,0-1.76-1.56,7.24,7.24,0,0,0-3.19-.58,6.58,6.58,0,0,0-3.11.63A4.48,4.48,0,0,0,126.82,13a6.46,6.46,0,0,0-.81,2.32,19.34,19.34,0,0,0-.18,2.65,25.39,25.39,0,0,0,.15,2.84,6.14,6.14,0,0,0,.77,2.29,4,4,0,0,0,1.76,1.53,7.73,7.73,0,0,0,3.18.53,6.89,6.89,0,0,0,3.09-.58A4.5,4.5,0,0,0,136.56,23a6,6,0,0,0,.79-2.32A16.53,16.53,0,0,0,137.55,18Z"/><path class="cls-2" d="M138.86,11.09V24.88h4.58V17.36a2.36,2.36,0,0,1,.67-1.91,3.06,3.06,0,0,1,1.91-.53,5.24,5.24,0,0,1,.56,0c.19,0,.38,0,.59.08V10.74h-.74a3,3,0,0,0-1.87.66,3.59,3.59,0,0,0-1.22,1.89h-.05v-2.2Z"/><path class="cls-2" d="M147.09,11.09v3.09h1.53v7.34a7.28,7.28,0,0,0,.2,1.86,2,2,0,0,0,.69,1,2.52,2.52,0,0,0,1.22.46c.5.05,1.09.08,1.79.08.39,0,.8,0,1.22-.05s.85,0,1.28,0V21.82h-.72a1.34,1.34,0,0,1-.84-.22,1.18,1.18,0,0,1-.25-.85V14.18H155V11.09h-1.81V7h-4.59v4.05Z"/><path class="cls-2" d="M159.53,20.6h-4A4.44,4.44,0,0,0,156.75,24a6.15,6.15,0,0,0,4.15,1.14,8.21,8.21,0,0,0,2.32-.3,4.51,4.51,0,0,0,1.74-.92,4.17,4.17,0,0,0,1.09-1.45,4.36,4.36,0,0,0,.39-1.86,3.87,3.87,0,0,0-.51-2.12,3.66,3.66,0,0,0-1.23-1.27,5.83,5.83,0,0,0-1.6-.74L161.52,16a6.22,6.22,0,0,1-1.25-.51,1.08,1.08,0,0,1-.16-1.68,1.26,1.26,0,0,1,.85-.28,1.16,1.16,0,0,1,.89.33,1.64,1.64,0,0,1,.33,1.2h4q0-4.34-5.18-4.33a8.21,8.21,0,0,0-2.45.33,4.92,4.92,0,0,0-1.7.91,3.74,3.74,0,0,0-1,1.38A4.2,4.2,0,0,0,155.5,15a4.13,4.13,0,0,0,.48,2.12,4.21,4.21,0,0,0,1.25,1.27,6.8,6.8,0,0,0,1.58.77l1.61.53a5.14,5.14,0,0,1,1.22.59,1.06,1.06,0,0,1,.51.94,1,1,0,0,1-.4.87,1.48,1.48,0,0,1-.92.31,1.08,1.08,0,0,1-1-.49,1.55,1.55,0,0,1-.26-.58A3.8,3.8,0,0,1,159.53,20.6Z"/><path class="cls-3" d="M13.81,11.18v1.21h5.46V11a9,9,0,0,0-.4-2.81,4.91,4.91,0,0,0-1.21-2.15,5.13,5.13,0,0,0-2.15-1.4,9.62,9.62,0,0,0-3.24-.48,9.82,9.82,0,0,0-3.67.6A5,5,0,0,0,6.21,6.69a8.93,8.93,0,0,0-1.3,3.49,31.13,31.13,0,0,0-.37,5.24,36.45,36.45,0,0,0,.31,5.18A9.19,9.19,0,0,0,6,24.08,4.65,4.65,0,0,0,8.39,26a10.9,10.9,0,0,0,3.88.58,10.82,10.82,0,0,0,2.63-.31,5.26,5.26,0,0,0,2.31-1.09,5.92,5.92,0,0,0,1.6-2.3,9.66,9.66,0,0,0,.61-3.73v-1.6H14c0,1,0,1.89-.09,2.57a7.91,7.91,0,0,1-.25,1.61,1.77,1.77,0,0,1-.51.88,1.42,1.42,0,0,1-.85.24,1.53,1.53,0,0,1-1-.33,2.4,2.4,0,0,1-.58-1.18,14.49,14.49,0,0,1-.24-2.28q-.06-1.46-.06-3.63c0-1.46,0-2.66.06-3.61a14.51,14.51,0,0,1,.24-2.3,2.35,2.35,0,0,1,.58-1.18,1.54,1.54,0,0,1,1-.34,1.26,1.26,0,0,1,1.18.67A6,6,0,0,1,13.81,11.18Z"/><path class="cls-3" d="M20.87,12.06h5.28v-.91a7,7,0,0,1,.12-1.46,2.84,2.84,0,0,1,.36-.88,1.1,1.1,0,0,1,.52-.39,1.39,1.39,0,0,1,.57-.12,1.26,1.26,0,0,1,1.06.51,3.27,3.27,0,0,1,.4,1.88,4.58,4.58,0,0,1-.37,2,5.41,5.41,0,0,1-1.15,1.55L23.9,18A10.79,10.79,0,0,0,21.36,22a13.31,13.31,0,0,0-.67,4.27H34.81V22H27.42a2.55,2.55,0,0,1,.57-.94l.82-.81L32.15,17a9.92,9.92,0,0,0,1.93-2.69,8.22,8.22,0,0,0,.73-3.67,8.25,8.25,0,0,0-.3-2.27,4,4,0,0,0-1.06-1.85,4.91,4.91,0,0,0-2.09-1.27,10.72,10.72,0,0,0-3.46-.46,10.13,10.13,0,0,0-3.57.52,4.72,4.72,0,0,0-2.12,1.48,5.2,5.2,0,0,0-1,2.31A15.48,15.48,0,0,0,20.87,12.06Z"/><path class="cls-2" d="M13.81,11.18v1.21h5.46V11a9,9,0,0,0-.4-2.81,4.91,4.91,0,0,0-1.21-2.15,5.13,5.13,0,0,0-2.15-1.4,9.62,9.62,0,0,0-3.24-.48,9.82,9.82,0,0,0-3.67.6A5,5,0,0,0,6.21,6.69a8.93,8.93,0,0,0-1.3,3.49,31.13,31.13,0,0,0-.37,5.24,36.45,36.45,0,0,0,.31,5.18A9.19,9.19,0,0,0,6,24.08,4.65,4.65,0,0,0,8.39,26a10.9,10.9,0,0,0,3.88.58,10.82,10.82,0,0,0,2.63-.31,5.26,5.26,0,0,0,2.31-1.09,5.92,5.92,0,0,0,1.6-2.3,9.66,9.66,0,0,0,.61-3.73v-1.6H14c0,1,0,1.89-.09,2.57a7.91,7.91,0,0,1-.25,1.61,1.77,1.77,0,0,1-.51.88,1.42,1.42,0,0,1-.85.24,1.53,1.53,0,0,1-1-.33,2.4,2.4,0,0,1-.58-1.18,14.49,14.49,0,0,1-.24-2.28q-.06-1.46-.06-3.63c0-1.46,0-2.66.06-3.61a14.51,14.51,0,0,1,.24-2.3,2.35,2.35,0,0,1,.58-1.18,1.54,1.54,0,0,1,1-.34,1.26,1.26,0,0,1,1.18.67A6,6,0,0,1,13.81,11.18Z"/><path class="cls-2" d="M20.87,12.06h5.28v-.91a7.11,7.11,0,0,1,.12-1.46,2.84,2.84,0,0,1,.36-.88,1.1,1.1,0,0,1,.52-.39,1.39,1.39,0,0,1,.57-.12,1.26,1.26,0,0,1,1.06.51,3.27,3.27,0,0,1,.4,1.88,4.58,4.58,0,0,1-.37,2,5.41,5.41,0,0,1-1.15,1.55L23.9,18A10.79,10.79,0,0,0,21.36,22a13.33,13.33,0,0,0-.67,4.28H34.81V22H27.42a2.55,2.55,0,0,1,.57-.94l.82-.81L32.15,17a9.92,9.92,0,0,0,1.93-2.69,8.22,8.22,0,0,0,.73-3.67,8.25,8.25,0,0,0-.3-2.27,4,4,0,0,0-1.06-1.85,4.91,4.91,0,0,0-2.09-1.27,10.72,10.72,0,0,0-3.46-.46,10.13,10.13,0,0,0-3.57.52,4.72,4.72,0,0,0-2.12,1.48,5.2,5.2,0,0,0-1,2.31A15.48,15.48,0,0,0,20.87,12.06Z"/></svg>